<svg width="90" height="60" xmlns="http://www.w3.org/2000/svg">
    <path name="cadre"
        d="M 0 0 L 90 0 L 90 60 L 0 60 L 0 0"
        fill="#fff"
    />

    <path name="ile"
        d="M 37.369 17.463 L 37.549 17.493 L 38.026 17.722 L 38.73 18.163 L 39.277 18.456 L 39.665 18.417 L 39.799 18.45 L 40.159 18.624 L 40.509 18.716 L 40.811 18.706 L 41.032 18.648 L 41.287 18.555 L 41.456 18.428 L 41.592 18.422 L 42.703 18.745 L 43.643 18.621 L 43.811 18.763 L 44.087 18.803 L 44.205 18.898 L 44.332 18.93 L 44.552 18.85 L 44.647 18.852 L 44.915 18.949 L 45.026 18.937 L 45.174 18.851 L 45.65 18.993 L 46.279 19.066 L 46.709 19.211 L 46.964 19.152 L 47.502 19.213 L 48.677 19.161 L 48.852 19.209 L 49.253 19.16 L 49.455 19.099 L 49.784 19.104 L 50.218 18.964 L 51.09 18.88 L 51.892 18.616 L 52.024 18.655 L 52.237 18.655 L 52.62 18.596 L 52.901 18.507 L 52.903 18.515 L 52.902 18.713 L 53.377 18.563 L 53.777 18.354 L 54.036 18.117 L 55.283 17.518 L 55.527 17.467 L 55.918 17.46 L 56.479 17.522 L 56.694 17.443 L 57.058 17.482 L 58.535 17.036 L 59.162 16.805 L 59.513 16.749 L 59.759 16.67 L 61.718 15.696 L 62.008 15.458 L 62.422 15.332 L 62.821 15.129 L 63.295 14.631 L 63.572 14.273 L 63.79 14.141 L 63.908 13.985 L 63.95 13.771 L 64.061 13.754 L 64.413 13.911 L 64.574 13.904 L 64.695 13.832 L 64.765 13.94 L 64.94 13.871 L 65.09 13.899 L 65.321 13.76 L 65.519 13.571 L 65.909 13.538 L 66.116 13.422 L 66.373 13.428 L 66.528 13.348 L 66.706 13.2 L 66.927 13.124 L 67.006 13.037 L 67.044 12.828 L 67.125 12.813 L 67.234 12.854 L 67.334 12.832 L 67.509 12.652 L 67.671 12.325 L 67.774 12.254 L 68.106 12.229 L 68.28 12.058 L 68.398 12.02 L 68.749 12.039 L 68.959 11.94 L 69.368 11.57 L 69.561 11.496 L 69.978 11.606 L 70.296 11.442 L 70.675 11.403 L 70.784 11.326 L 70.873 11.188 L 70.904 10.997 L 70.997 10.954 L 71.161 11.025 L 71.338 10.979 L 71.832 10.64 L 72.1 10.511 L 72.386 10.528 L 72.711 10.398 L 72.732 10.447 L 72.605 10.536 L 72.505 10.668 L 72.453 10.95 L 72.359 11.063 L 72.343 11.524 L 72.252 11.684 L 72.139 11.74 L 71.612 11.828 L 71.491 12.01 L 71.268 11.977 L 69.684 12.769 L 69.288 13.05 L 69.159 13.328 L 69.047 13.357 L 68.913 13.788 L 68.808 13.919 L 68.324 14.304 L 67.756 14.537 L 67.277 14.857 L 66.481 15.663 L 64.467 16.557 L 63.801 16.956 L 62.897 17.62 L 62.496 17.991 L 61.968 18.599 L 61.876 18.772 L 61.68 19.428 L 61.609 19.538 L 61.47 19.625 L 61.18 19.716 L 60.921 19.745 L 60.532 19.751 L 60.125 19.625 L 59.644 19.693 L 59.324 19.887 L 59.16 20.046 L 58.992 20.291 L 58.792 20.682 L 58.612 20.833 L 58.319 21.427 L 58.124 22.421 L 58.143 22.639 L 58.353 23.248 L 58.306 23.357 L 58.196 23.383 L 58.088 23.489 L 58.121 23.522 L 58.33 23.524 L 58.422 23.577 L 58.912 24.245 L 59.117 24.468 L 59.363 24.658 L 59.584 25.141 L 59.82 25.454 L 60.155 25.794 L 61.062 26.518 L 61.644 27.405 L 61.963 27.795 L 61.789 27.98 L 61.97 28.29 L 62.173 28.332 L 62.229 28.417 L 62.125 28.557 L 62.037 28.544 L 61.959 28.435 L 61.78 28.489 L 61.701 28.475 L 61.137 28.144 L 60.976 28.125 L 60.701 27.93 L 60.309 27.978 L 60.133 27.906 L 59.913 27.952 L 59.597 27.837 L 59.471 27.838 L 59.332 28.002 L 59.241 28.05 L 58.718 28.079 L 58.273 28.253 L 58.083 28.537 L 57.852 28.664 L 57.684 28.807 L 57.461 28.923 L 57.303 28.948 L 57.055 28.844 L 56.708 28.504 L 56.43 28.287 L 56.188 28.208 L 55.426 28.074 L 53.996 28.093 L 53.648 28.152 L 53.476 28.228 L 53.14 28.457 L 52.928 28.684 L 52.689 29.246 L 52.639 29.684 L 52.68 30.135 L 52.617 30.376 L 52.618 30.751 L 52.232 31.313 L 52.089 31.404 L 51.953 31.893 L 51.872 31.941 L 51.267 31.866 L 50.757 31.898 L 50.598 31.99 L 50.35 32.348 L 50.159 32.425 L 49.994 32.613 L 49.717 32.65 L 49.59 32.862 L 48.951 32.909 L 48.706 32.972 L 48.484 33.089 L 48.231 33.286 L 47.688 33.574 L 47.287 33.691 L 46.875 33.986 L 46.795 34.019 L 46.584 34.013 L 46.242 34.2 L 46.076 34.197 L 45.843 34.328 L 45.342 34.204 L 45.214 34.222 L 44.94 34.343 L 44.866 34.414 L 44.782 34.648 L 44.69 34.677 L 42.199 34.501 L 41.814 34.567 L 40.987 34.848 L 40.95 34.834 L 40.94 34.874 L 40.614 35.015 L 40.301 35.223 L 39.899 35.581 L 39.527 35.82 L 39.386 36.008 L 39.323 36.256 L 39.254 36.342 L 39.223 36.59 L 39.265 37.055 L 39.344 37.278 L 39.447 37.43 L 39.815 37.855 L 39.835 37.955 L 39.8 38.041 L 39.743 38.078 L 39.587 38.063 L 39.183 37.88 L 38.93 37.883 L 38.702 37.785 L 38.345 37.963 L 38 37.926 L 37.879 37.944 L 37.738 38.025 L 37.709 37.96 L 37.738 37.879 L 37.871 37.779 L 37.868 37.618 L 37.784 37.381 L 37.66 37.208 L 37.478 36.675 L 37.25 36.332 L 36.998 36.066 L 37.079 35.934 L 36.865 35.929 L 36.688 35.728 L 36.54 35.625 L 35.962 35.496 L 35.697 35.591 L 35.399 35.507 L 34.953 35.701 L 34.779 35.644 L 34.185 35.718 L 34.008 35.802 L 33.961 35.873 L 33.712 36.028 L 33.555 36.054 L 33.394 36.014 L 33.2 36.025 L 33 36.193 L 32.856 36.19 L 32.401 36.022 L 32.115 35.956 L 31.485 35.716 L 31.107 35.625 L 30.823 35.503 L 30.576 35.3 L 29.969 34.925 L 29.76 34.87 L 29.273 34.721 L 29.046 34.723 L 28.792 34.55 L 28.569 34.569 L 28.382 34.693 L 28.26 34.571 L 28.024 34.45 L 27.434 33.917 L 27.31 33.857 L 27.119 33.886 L 26.921 33.586 L 26.759 33.451 L 26.655 33.435 L 26.502 33.466 L 26.357 33.337 L 26.417 32.926 L 26.381 32.774 L 26.266 32.579 L 26.264 32.276 L 26.081 31.796 L 26.061 31.402 L 25.962 31.275 L 25.763 31.178 L 25.642 31.056 L 25.517 31.058 L 25.436 30.995 L 25.29 31.027 L 25.166 30.917 L 24.998 30.504 L 24.51 30.07 L 24.488 29.941 L 24.685 29.729 L 24.781 29.425 L 24.695 29.207 L 24.3 28.713 L 24.324 28.565 L 24.458 28.462 L 24.404 28.292 L 24.51 28.039 L 24.36 27.589 L 24.171 27.271 L 24.035 26.946 L 23.595 26.33 L 23.555 26.03 L 23.622 25.392 L 23.675 25.155 L 23.728 25.069 L 23.864 25.065 L 24.142 25.241 L 24.721 25.813 L 25.124 26.137 L 25.489 26.365 L 25.822 26.468 L 26.193 26.518 L 26.39 26.516 L 26.782 26.433 L 27.257 26.259 L 27.641 25.958 L 27.961 25.713 L 28.275 25.366 L 28.504 25.024 L 28.873 24.182 L 29.01 23.983 L 29.405 23.636 L 29.466 23.499 L 29.481 23.267 L 29.548 23.219 L 29.674 23.245 L 29.89 23.372 L 30.072 23.339 L 30.49 23.156 L 30.704 23.161 L 30.799 23.11 L 30.817 23.078 L 30.957 22.866 L 31.081 22.858 L 31.252 22.926 L 31.653 22.74 L 31.907 22.752 L 32.096 22.798 L 32.448 22.961 L 32.829 22.971 L 33.311 23.116 L 33.524 23.135 L 33.628 23.259 L 34.021 23.487 L 34.381 23.561 L 34.705 23.793 L 34.954 23.857 L 35.203 23.993 L 35.407 24.003 L 35.729 23.979 L 35.856 23.926 L 36.255 23.695 L 37.035 23.165 L 37.133 23.03 L 37.487 21.947 L 37.707 20.966 L 37.791 20.111 L 37.792 19.576 L 37.739 19.047 L 37.667 18.855 L 37.494 18.664 L 37.45 18.521 L 37.464 18.107 L 37.434 17.829 L 37.345 17.549 L 37.369 17.463"
        fill="#ed8000"
    />

    <path name="branches"
        d="M 45 49.095 C 44.556 49.665 44.023 50.371 43.692 50.673 C 43.613 50.5 43.178 50.095 42.849 49.833 L 44.249 48.8 C 44.134 48.787 43.815 48.61 43.596 48.513 L 43.898 48.172 C 44.283 48.327 44.971 48.651 44.999 48.628 C 45.027 48.651 45.708 48.317 46.101 48.172 L 46.403 48.514 C 46.1863 48.61 45.927 48.751 45.753 48.802 L 47.144 49.833 C 46.868 50.095 46.351 50.492 46.311 50.68 C 45.953 50.376 45.437 49.6233 45 49.095 M 42.832 48.566 C 41.56 49.334 40.002 49.144 38.986 48.512 C 39.76 47.396 41.724 48.028 42.832 48.566 M 40.803 47.394 C 40.56 47.434 37.798 47.835 37.543 46.482 C 38.533 46.093 39.776 46.392 40.803 47.394 M 37.546 47.581 C 38.027 47.374 38.386 48.072 38.273 48.281 C 38.113 48.585 37.476 48.439 37.546 47.581 M 43.209 47.822 C 42.319 47.686 40.097 47.249 40.161 45.467 C 41.36 45.246 42.571 46.547 43.209 47.822 M 38.886 45.064 C 39.373 44.877 39.732 45.561 39.61 45.77 C 39.442 46.065 38.837 45.939 38.886 45.065 M 33.532 46.43 C 34.838 46.08 36.888 46.142 37.117 46.924 C 37.098 47.558 34.619 47.504 33.531 46.429 M 38.229 45.626 C 37.614 45.546 35.867 45.1 35.359 43.602 C 37.231 43.281 38.06 44.975 38.229 45.626 M 36.529 45.789 C 35.761 45.759 33.694 45.563 33.213 44.137 C 34.075 43.875 35.504 44.486 36.531 45.789 M 33.136 45.302 C 33.361 45.17 33.797 45.509 33.7 45.919 C 33.553 46.215 33.09 46.015 33.136 45.302 M 34.18 43.116 C 34.565 42.956 35.016 43.422 34.901 43.825 C 34.716 44.126 34.115 43.93 34.18 43.117 M 32.951 44.878 C 32.165 45.123 29.401 45.144 29.371 43.919 C 30.529 43.651 32.1 43.66 32.951 44.878 M 32.462 43.653 C 30.84 43.184 30.054 42.224 29.95 41.25 C 31.385 41.146 32.129 42.995 32.462 43.652 M 33.908 43.598 C 33.122 43.314 31.898 42.187 31.292 40.659 C 32.051 40.302 33.233 41.192 33.909 43.598 M 29.418 42.744 C 29.854 42.605 30.611 42.904 30.535 43.332 C 30.435 43.657 29.296 43.532 29.418 42.743 M 29.572 42.124 C 27.691 42.199 27.266 42.008 27.005 40.686 C 27.873 40.734 29.431 40.901 29.573 42.124 M 30.485 40.76 C 29.56 39.445 30.041 40.12 29.726 38.191 C 30.467 38.581 30.716 38.689 30.484 40.759 M 29.516 40.659 C 29.534 40.764 26.233 39.983 26.777 37.43 C 27.308 37.19 29.602 39.269 29.516 40.66 M 46.791 47.824 C 47.274 46.949 48.371 45.201 49.839 45.466 C 49.811 47.454 47.261 47.705 46.793 47.824 M 47.168 48.567 C 47.856 48.969 49.385 49.497 51.017 48.511 C 50.167 47.203 47.673 48.347 47.168 48.567 M 49.199 47.393 C 49.878 47.427 52.086 47.85 52.457 46.484 C 51.169 45.946 49.979 46.681 49.199 47.39 M 51.117 45.065 C 50.723 44.882 50.263 45.447 50.395 45.775 C 50.605 46.095 51.174 45.858 51.117 45.065 M 52.457 47.577 C 51.964 47.373 51.617 48.082 51.727 48.284 C 52.024 48.657 52.531 48.26 52.456 47.577 M 51.766 45.629 C 52.151 44.491 52.999 43.33 54.647 43.6 C 54.453 44.095 53.882 45.306 51.766 45.629 M 52.884 46.922 C 53.268 45.934 55.831 46.241 56.465 46.434 C 55.147 47.653 52.802 47.451 52.884 46.923 M 53.475 45.788 C 54.032 45.103 55.423 43.774 56.784 44.134 C 56.492 44.971 55.572 45.685 53.475 45.789 M 56.865 45.3 C 56.434 45.161 56.223 45.774 56.296 45.925 C 56.553 46.26 56.951 45.802 56.864 45.299 M 55.822 43.113 C 55.887 43.852 55.34 44.181 55.096 43.819 C 54.986 43.641 55.314 42.922 55.822 43.113 M 57.052 44.88 C 57.956 45.137 60.608 45.083 60.636 43.918 C 59.582 43.737 58.145 43.505 57.054 44.879 M 56.089 43.602 C 56.925 43.256 58.222 41.99 58.698 40.662 C 57.309 40.15 56.407 42.615 56.088 43.601 M 57.539 43.649 C 58.083 43.461 59.886 42.869 60.045 41.247 C 59.343 41.112 58.424 41.676 57.539 43.649 M 60.581 42.747 C 60.605 43.575 59.693 43.61 59.479 43.363 C 59.342 43.105 59.906 42.568 60.583 42.748 M 59.518 40.764 C 59.58 40.034 58.946 38.691 60.274 38.192 C 59.938 39.96 60.459 39.532 59.518 40.763 M 60.426 42.123 C 60.685 40.738 62.498 40.747 62.996 40.687 C 62.681 42.19 62.047 42.174 60.426 42.123 M 60.496 40.673 C 60.316 39.785 62.245 37.222 63.224 37.437 C 63.415 39.148 62.877 39.835 60.496 40.673"
        fill="#006651"
    />
</svg>