<svg width="20" height="27" xmlns="http://www.w3.org/2000/svg">

    <path name="Couvercle"
        d="M 0 9 L 20 9 L 20 6 C 20 5 19 4 18 4 L 2 4 C 1 4 0 5 0 6 L 0 6 L 0 9"
        fill="#77959e" />
    
    <path name="Hanse"
        d="M 7 4 L 7 2 C 7 1 8 0 9 0 L 11 0 C 12 0 13 1 13 2 L 13 4 L 12 4 L 12 2 C 12 1 11 1 11 1 L 9 1 C 9 1 8 1 8 2 L 8 4 L 7 4"
        fill="#62808c" />
    
    <path name="Contenant"
        d="M 2 9 L 2 24 C 2 26 3 27 5 27 L 15 27 C 17 27 18 26 18 24 L 18 9 L 2 9 M 10 18 L 8 20 C 7 21 6 20 7 19 L 9 17 L 7 15 C 6 14 7 13 8 14 L 10 16 L 12 14 C 13 13 14 14 13 15 L 11 17 L 13 19 C 14 20 13 21 12 20 L 10 18"
        fill="#e76e54" />
</svg>