<svg width="44" height="44" viewBox="-3 -3 47 47" xmlns="http://www.w3.org/2000/svg">

    <path
        d="M 27 8 L 27 2 C 27 1 27 1 26 1 L 18 1 C 17 1 17 1 17 2 L 17 8 M 8 17 L 2 17 C 1 17 1 17 1 18 L 1 26 C 1 27 1 27 2 27 L 8 27 M 17 36 L 17 42 C 17 43 17 43 18 43 L 26 43 C 27 43 27 43 27 42 L 27 36 M 36 27 L 42 27 C 43 27 43 27 43 26 L 43 18 C 43 17 43 17 42 17 L 36 17 M 15 9 L 11 5 C 10 4 10 4 9 5 L 5 9 C 4 10 4 10 5 11 L 9 15 M 9 29 L 5 33 C 4 34 4 34 5 35 L 9 39 C 10 40 10 40 11 39 L 15 35 M 29 35 L 33 39 C 34 40 34 40 35 39 L 39 35 C 40 34 40 34 39 33 L 35 29 M 35 15 L 39 11 C 40 10 40 10 39 9 L 35 5 C 34 4 34 4 33 5 L 29 9 M 22 17 C 29 17 29 27 22 27 C 15 27 15 17 22 17 M 22 7 A 1 1 0 0 0 22 37 A 1 1 0 0 0 22 7"
        fill="#aaaaaa"
        stroke="#000000" />
</svg>