<svg width="53" height="51" xmlns="http://www.w3.org/2000/svg">

    <path name="contour"
        d="M 14 11 L 5 11 C 3 11 1 13 1 15 L 1 39 C 1 42 3 44 6 44 L 44 44 C 47 44 49 42 49 39 L 49 15 C 49 13 47 11 45 11 L 36 11 C 35 11 35 11 35 10 C 35 8 35 6 31 6 L 19 6 C 15 6 15 8 15 10 C 15 11 15 11 14 11"
        stroke="#000000"
        stroke-width="3"
        fill-opacity="0" />

    <path name="rond central"
        d="M 25 17 A 1 1 0 0 0 25 38 A 1 1 0 0 0 25 17"
        stroke="#000000"
        stroke-width="3"
        fill-opacity="0" />
    
    <path name="petit rond"
        d="M 42 16 A 1 1 0 0 0 42 19 A 1 1 0 0 0 42 16"
        stroke="#000000"
        stroke-width="2" />
</svg>