<svg width="50" height="50" xmlns="http://www.w3.org/2000/svg">

    <path name="rouge"
        d="M 25 0 C 33.269 0.056 41.734 4.2 46.645 12.498 L 24.998 12.479 C 12.437 13.075 10.639 25.455 13.998 30.963 L 3.348 12.497 C 7.044 6.642 13.383 0.144 24.999 -0.001"
        fill="#ea4335" />
    
    <path name="ombre rouge"
        d="M 3.341 12.495 L 13.051 21.296 C 12.135 24.301 12.32 28.013 13.998 31 L 3.326 12.487"
        fill="#d93025" />
    
    <path name="jaune"
        d="M 49.995 24.998 C 49.971 36.538 41.217 49.736 24.991 50.002 L 35.978 31.018 C 40.419 22.83 34.687 12.473 24.996 12.481 L 46.644 12.497 C 48.234 15.198 50.084 19.632 50 25.001"
        fill="#fcc934" />
    
    <path name="ombre jaune"
        d="M 46.645 12.495 L 33.135 15.451 C 31.399 13.904 28.417 12.412 25.003 12.482 L 46.645 12.496"
        fill="#fbbc04" />

    <path name="vert"
        d="M 0.005 25.011 C 0.15 20.459 0.884 16.841 3.385 12.443 L 14.046 30.962 C 19.339 39.655 30.388 39.614 35.702 31.461 L 24.996 49.999 C 13.172 50.365 0.451 40.677 0.004 25.014"
        fill="#34a853" />
    
    <path name="ombre verte"
        d="M 35.696 31.472 L 24.993 49.991 C 26.0003 45.646 27.0077 41.301 28.008 37.165 C 30.099 36.686 33.725 34.729 35.705 31.462"
        fill="#1e8e3e" />

    <path name="rond blanc"
        d="M 24.991 12.487 A 1 1 0 0 0 25.003 37.53 A 1 1 0 0 0 24.989 12.479"
        fill="#fff" />

    <path name="rond bleu"
        d="M 24.99 15.096 A 1 1 0 0 0 25.008 34.907 A 1 1 0 0 0 24.999 15.105"
        fill="#1a73e8" />
</svg>